<svg xmlns="http://www.w3.org/2000/svg" width="106.437" height="106.426" viewBox="0 0 106.437 106.426">
  <g id="FIT_Logo-icon" data-name="FIT Logo-icon" transform="translate(-32 -32)">
    <g id="Group_3335" data-name="Group 3335" transform="translate(33 33)">
      <path id="Path_1989" data-name="Path 1989" d="M62.071,33A29.1,29.1,0,0,0,33,62.071v46.294a29.1,29.1,0,0,0,29.071,29.06h46.294a29.106,29.106,0,0,0,29.071-29.071V62.071A29.115,29.115,0,0,0,108.354,33Z" transform="translate(-33 -33)" fill="#1d1d33" stroke="#f28e29" stroke-width="2"/>
    </g>
    <g id="Group_3339" data-name="Group 3339" transform="translate(53.667 47.018)">
      <g id="Group_3338" data-name="Group 3338" transform="translate(0 14.89)">
        <g id="Group_3337" data-name="Group 3337">
          <path id="Path_1990" data-name="Path 1990" d="M252.129,298.2l-5.276,12.187-6.29-6.987L222.6,350.816l19.337-32.429,7.151,5.744L261.351,298.2Z" transform="translate(-222.6 -298.2)" fill="#f28e29"/>
          <g id="Group_3336" data-name="Group 3336" transform="translate(1.003)">
            <path id="Path_1991" data-name="Path 1991" d="M279.01,298.2l-10.824,21.1-8.993-11.391L231.8,368.072l27.6-40.113,10.443,9.538,21.7-39.3Z" transform="translate(-231.8 -298.2)" fill="#fff"/>
          </g>
        </g>
      </g>
      <circle id="Ellipse_272" data-name="Ellipse 272" cx="6.475" cy="6.475" r="6.475" transform="translate(30.379)" fill="#fff"/>
      <circle id="Ellipse_273" data-name="Ellipse 273" cx="6.213" cy="6.213" r="6.213" transform="translate(50.185 0.262)" fill="#f28e29"/>
    </g>
  </g>
</svg>
